<svg width="14" height="16" viewBox="0 0 14 16" fill="none" xmlns="http://www.w3.org/2000/svg">
<path d="M11.6611 0H3.76666C2.89053 0 2.17778 0.672906 2.17778 1.5V2H1.08578C0.487063 2 0 2.48706 0 3.08578V14.9142C0 15.5129 0.487063 16 1.08578 16H9.98644C10.5852 16 11.0722 15.5129 11.0722 14.9142V14H11.6611C12.5372 14 13.25 13.3271 13.25 12.5V1.5C13.25 0.672906 12.5372 0 11.6611 0ZM10.0722 14.9142C10.0722 14.9615 10.0338 15 9.98644 15H1.08578C1.03847 15 1 14.9615 1 14.9142V3.08578C1 3.03847 1.03847 3 1.08578 3H9.98644C10.0338 3 10.0722 3.03847 10.0722 3.08578V14.9142ZM12.25 12.5C12.25 12.7757 11.9858 13 11.6611 13H11.0722V3.08578C11.0722 2.48706 10.5852 2 9.98644 2H3.17778V1.5C3.17778 1.22431 3.44197 1 3.76666 1H11.6611C11.9858 1 12.25 1.22431 12.25 1.5V12.5Z" fill="#7F7F7F"/>
<path d="M8 6.75H3.25C2.97387 6.75 2.75 6.52613 2.75 6.25C2.75 5.97387 2.97387 5.75 3.25 5.75H8C8.27612 5.75 8.5 5.97387 8.5 6.25C8.5 6.52613 8.27612 6.75 8 6.75Z" fill="#7F7F7F"/>
<path d="M8 8.75H3.25C2.97387 8.75 2.75 8.52613 2.75 8.25C2.75 7.97387 2.97387 7.75 3.25 7.75H8C8.27612 7.75 8.5 7.97387 8.5 8.25C8.5 8.52613 8.27612 8.75 8 8.75Z" fill="#7F7F7F"/>
<path d="M8 10.75H3.25C2.97387 10.75 2.75 10.5261 2.75 10.25C2.75 9.97387 2.97387 9.75 3.25 9.75H8C8.27612 9.75 8.5 9.97387 8.5 10.25C8.5 10.5261 8.27612 10.75 8 10.75Z" fill="#7F7F7F"/>
</svg>
